{
	"patcher" : 	{
		"fileversion" : 1,
		"appversion" : 		{
			"major" : 8,
			"minor" : 1,
			"revision" : 8,
			"architecture" : "x64",
			"modernui" : 1
		}
,
		"classnamespace" : "box",
		"rect" : [ 114.0, 118.0, 928.0, 699.0 ],
		"bglocked" : 0,
		"openinpresentation" : 0,
		"default_fontsize" : 12.0,
		"default_fontface" : 0,
		"default_fontname" : "Arial",
		"gridonopen" : 1,
		"gridsize" : [ 15.0, 15.0 ],
		"gridsnaponopen" : 1,
		"objectsnaponopen" : 1,
		"statusbarvisible" : 2,
		"toolbarvisible" : 1,
		"lefttoolbarpinned" : 0,
		"toptoolbarpinned" : 0,
		"righttoolbarpinned" : 0,
		"bottomtoolbarpinned" : 0,
		"toolbars_unpinned_last_save" : 0,
		"tallnewobj" : 0,
		"boxanimatetime" : 200,
		"enablehscroll" : 1,
		"enablevscroll" : 1,
		"devicewidth" : 0.0,
		"description" : "",
		"digest" : "",
		"tags" : "",
		"style" : "",
		"subpatcher_template" : "",
		"assistshowspatchername" : 0,
		"boxes" : [ 			{
				"box" : 				{
					"format" : 6,
					"id" : "obj-86",
					"maxclass" : "flonum",
					"numinlets" : 1,
					"numoutlets" : 2,
					"outlettype" : [ "", "bang" ],
					"parameter_enable" : 0,
					"patching_rect" : [ 1078.216672915220443, 577.66666579246521, 50.0, 22.0 ]
				}

			}
, 			{
				"box" : 				{
					"format" : 6,
					"id" : "obj-85",
					"maxclass" : "flonum",
					"numinlets" : 1,
					"numoutlets" : 2,
					"outlettype" : [ "", "bang" ],
					"parameter_enable" : 0,
					"patching_rect" : [ 964.550003308057967, 602.666666984558105, 50.0, 22.0 ]
				}

			}
, 			{
				"box" : 				{
					"bgmode" : 0,
					"border" : 0,
					"clickthrough" : 0,
					"enablehscroll" : 0,
					"enablevscroll" : 0,
					"extract" : 1,
					"id" : "obj-84",
					"lockeddragscroll" : 0,
					"maxclass" : "bpatcher",
					"name" : "bp.HPF.maxpat",
					"numinlets" : 4,
					"numoutlets" : 1,
					"offset" : [ 0.0, 0.0 ],
					"outlettype" : [ "signal" ],
					"patching_rect" : [ 1026.000001072883606, 626.666666984558105, 253.0, 116.0 ],
					"varname" : "bp.HPF",
					"viewvisibility" : 1
				}

			}
, 			{
				"box" : 				{
					"format" : 6,
					"id" : "obj-79",
					"maxclass" : "flonum",
					"numinlets" : 1,
					"numoutlets" : 2,
					"outlettype" : [ "", "bang" ],
					"parameter_enable" : 0,
					"patching_rect" : [ 883.000003308057785, 643.333334445953369, 50.0, 22.0 ]
				}

			}
, 			{
				"box" : 				{
					"bgmode" : 0,
					"border" : 0,
					"clickthrough" : 0,
					"enablehscroll" : 0,
					"enablevscroll" : 0,
					"extract" : 1,
					"id" : "obj-76",
					"lockeddragscroll" : 0,
					"maxclass" : "bpatcher",
					"name" : "bp.Pan Mixer.maxpat",
					"numinlets" : 8,
					"numoutlets" : 2,
					"offset" : [ 0.0, 0.0 ],
					"outlettype" : [ "signal", "signal" ],
					"patching_rect" : [ 861.400003308057876, 913.208338954906594, 395.0, 217.0 ],
					"varname" : "bp.Pan Mixer",
					"viewvisibility" : 1
				}

			}
, 			{
				"box" : 				{
					"bgmode" : 0,
					"border" : 0,
					"clickthrough" : 0,
					"enablehscroll" : 0,
					"enablevscroll" : 0,
					"extract" : 1,
					"id" : "obj-74",
					"lockeddragscroll" : 0,
					"maxclass" : "bpatcher",
					"name" : "bp.Classic Vocoder.maxpat",
					"numinlets" : 2,
					"numoutlets" : 1,
					"offset" : [ 0.0, 0.0 ],
					"outlettype" : [ "signal" ],
					"patching_rect" : [ 853.0, 716.0, 157.0, 116.0 ],
					"varname" : "bp.Classic Vocoder",
					"viewvisibility" : 1
				}

			}
, 			{
				"box" : 				{
					"basictuning" : 440,
					"data" : 					{
						"clips" : [ 							{
								"absolutepath" : "C:\\Users\\Alex\\Desktop\\samples\\AndrewH\\FOODS & DUDES SAMPLE PACK\\VOICE\\VOICE - WOO.wav",
								"filename" : "VOICE - WOO.wav",
								"filekind" : "audiofile",
								"id" : "u611002366",
								"selection" : [ 0.0, 1.0 ],
								"loop" : 0,
								"content_state" : 								{

								}

							}
 ]
					}
,
					"followglobaltempo" : 0,
					"formantcorrection" : 0,
					"id" : "obj-73",
					"maxclass" : "playlist~",
					"mode" : "basic",
					"numinlets" : 1,
					"numoutlets" : 5,
					"originallength" : [ 0.0, "ticks" ],
					"originaltempo" : 120.0,
					"outlettype" : [ "signal", "signal", "signal", "", "dictionary" ],
					"parameter_enable" : 0,
					"patching_rect" : [ 476.0, 811.0, 150.0, 30.0 ],
					"pitchcorrection" : 0,
					"quality" : "basic",
					"timestretch" : [ 0 ]
				}

			}
, 			{
				"box" : 				{
					"id" : "obj-71",
					"maxclass" : "message",
					"numinlets" : 2,
					"numoutlets" : 1,
					"outlettype" : [ "" ],
					"patching_rect" : [ 420.500003308057785, 724.000019490718842, 29.5, 22.0 ],
					"text" : "1"
				}

			}
, 			{
				"box" : 				{
					"id" : "obj-68",
					"maxclass" : "message",
					"numinlets" : 2,
					"numoutlets" : 1,
					"outlettype" : [ "" ],
					"patching_rect" : [ 461.733335965871902, 635.333336189929923, 29.5, 22.0 ],
					"text" : "1"
				}

			}
, 			{
				"box" : 				{
					"basictuning" : 440,
					"data" : 					{
						"clips" : [ 							{
								"absolutepath" : "C:/Users/Alex/Desktop/samples/AndrewH/FOODS & DUDES SAMPLE PACK/VOICE/VOICE - YEAH.wav",
								"filename" : "VOICE - YEAH.wav",
								"filekind" : "audiofile",
								"id" : "u877002287",
								"selection" : [ 0.0, 1.0 ],
								"loop" : 0,
								"content_state" : 								{

								}

							}
 ]
					}
,
					"followglobaltempo" : 0,
					"formantcorrection" : 0,
					"id" : "obj-67",
					"maxclass" : "playlist~",
					"mode" : "basic",
					"numinlets" : 1,
					"numoutlets" : 5,
					"originallength" : [ 0.0, "ticks" ],
					"originaltempo" : 120.0,
					"outlettype" : [ "signal", "signal", "signal", "", "dictionary" ],
					"parameter_enable" : 0,
					"patching_rect" : [ 468.0, 687.0, 150.0, 30.0 ],
					"pitchcorrection" : 0,
					"quality" : "basic",
					"timestretch" : [ 0 ]
				}

			}
, 			{
				"box" : 				{
					"id" : "obj-65",
					"maxclass" : "message",
					"numinlets" : 2,
					"numoutlets" : 1,
					"outlettype" : [ "" ],
					"patching_rect" : [ 623.333350718021393, 688.666685998439789, 29.5, 22.0 ],
					"text" : "1"
				}

			}
, 			{
				"box" : 				{
					"basictuning" : 440,
					"data" : 					{
						"clips" : [ 							{
								"absolutepath" : "C:/Users/Alex/Desktop/samples/Chants/Chant Breath 001.wav",
								"filename" : "Chant Breath 001.wav",
								"filekind" : "audiofile",
								"id" : "u752002281",
								"selection" : [ 0.0, 1.0 ],
								"loop" : 0,
								"content_state" : 								{

								}

							}
 ]
					}
,
					"followglobaltempo" : 0,
					"formantcorrection" : 0,
					"id" : "obj-57",
					"maxclass" : "playlist~",
					"mode" : "basic",
					"numinlets" : 1,
					"numoutlets" : 5,
					"originallength" : [ 0.0, "ticks" ],
					"originaltempo" : 120.0,
					"outlettype" : [ "signal", "signal", "signal", "", "dictionary" ],
					"parameter_enable" : 0,
					"patching_rect" : [ 566.999999761581421, 741.33333420753479, 150.0, 30.0 ],
					"pitchcorrection" : 0,
					"quality" : "basic",
					"timestretch" : [ 0 ]
				}

			}
, 			{
				"box" : 				{
					"bgmode" : 0,
					"border" : 0,
					"clickthrough" : 0,
					"enablehscroll" : 0,
					"enablevscroll" : 0,
					"extract" : 1,
					"id" : "obj-46",
					"lockeddragscroll" : 0,
					"maxclass" : "bpatcher",
					"name" : "bp.Stereo.maxpat",
					"numinlets" : 2,
					"numoutlets" : 0,
					"offset" : [ 0.0, 0.0 ],
					"patching_rect" : [ 627.99999988079071, 901.041670420627725, 148.0, 116.0 ],
					"varname" : "bp.Stereo",
					"viewvisibility" : 1
				}

			}
, 			{
				"box" : 				{
					"bubble" : 1,
					"bubbleside" : 2,
					"id" : "obj-60",
					"linecount" : 6,
					"maxclass" : "comment",
					"numinlets" : 1,
					"numoutlets" : 0,
					"patching_rect" : [ 606.666674196720123, 231.541665569488543, 228.0, 108.0 ],
					"text" : "loadmess will output any messages that you write into the object, when you open the patch ~~~~ unpack takes a list of messages and seperates them into individual messages that will be sent out of each output you create "
				}

			}
, 			{
				"box" : 				{
					"bubble" : 1,
					"id" : "obj-45",
					"linecount" : 3,
					"maxclass" : "comment",
					"numinlets" : 1,
					"numoutlets" : 0,
					"patching_rect" : [ 189.000003308057785, 779.333336189929923, 175.0, 52.0 ],
					"text" : "adds the composite video and the third video together for the final output"
				}

			}
, 			{
				"box" : 				{
					"bubble" : 1,
					"id" : "obj-42",
					"linecount" : 3,
					"maxclass" : "comment",
					"numinlets" : 1,
					"numoutlets" : 0,
					"patching_rect" : [ 189.000003308057785, 635.333336189929923, 170.0, 52.0 ],
					"text" : "adds the first and the second video together into one composit video"
				}

			}
, 			{
				"box" : 				{
					"bubble" : 1,
					"fontface" : 1,
					"fontname" : "Arial",
					"id" : "obj-18",
					"maxclass" : "comment",
					"numinlets" : 1,
					"numoutlets" : 0,
					"patching_rect" : [ 189.000003308057785, 750.333336189929923, 156.0, 24.0 ],
					"text" : "set the operation to +",
					"textcolor" : [ 1.0, 0.0, 0.0, 1.0 ]
				}

			}
, 			{
				"box" : 				{
					"bubble" : 1,
					"fontface" : 1,
					"fontname" : "Arial",
					"id" : "obj-9",
					"maxclass" : "comment",
					"numinlets" : 1,
					"numoutlets" : 0,
					"patching_rect" : [ 189.000003308057785, 599.333336189929923, 156.0, 24.0 ],
					"text" : "set the operation to +",
					"textcolor" : [ 1.0, 0.0, 0.0, 1.0 ]
				}

			}
, 			{
				"box" : 				{
					"annotation" : "## Combine two videos using math operations ##",
					"bgmode" : 1,
					"border" : 0,
					"clickthrough" : 0,
					"enablehscroll" : 0,
					"enablevscroll" : 0,
					"id" : "obj-44",
					"lockeddragscroll" : 0,
					"maxclass" : "bpatcher",
					"name" : "vz.oper8r.maxpat",
					"numinlets" : 3,
					"numoutlets" : 1,
					"offset" : [ 0.0, 0.0 ],
					"outlettype" : [ "jit_gl_texture" ],
					"patching_rect" : [ 70.500003308057785, 716.0, 118.0, 130.0 ],
					"varname" : "oper8r[1]",
					"viewvisibility" : 1
				}

			}
, 			{
				"box" : 				{
					"annotation" : "## Combine two videos using math operations ##",
					"bgmode" : 1,
					"border" : 0,
					"clickthrough" : 0,
					"enablehscroll" : 0,
					"enablevscroll" : 0,
					"id" : "obj-43",
					"lockeddragscroll" : 0,
					"maxclass" : "bpatcher",
					"name" : "vz.oper8r.maxpat",
					"numinlets" : 3,
					"numoutlets" : 1,
					"offset" : [ 0.0, 0.0 ],
					"outlettype" : [ "jit_gl_texture" ],
					"patching_rect" : [ 70.500003308057785, 571.0, 118.0, 130.0 ],
					"varname" : "oper8r",
					"viewvisibility" : 1
				}

			}
, 			{
				"box" : 				{
					"bubble" : 1,
					"id" : "obj-40",
					"maxclass" : "comment",
					"numinlets" : 1,
					"numoutlets" : 0,
					"patching_rect" : [ 152.000003308057785, 8.000001759418524, 136.0, 24.0 ],
					"text" : "turn all 3 metros on"
				}

			}
, 			{
				"box" : 				{
					"id" : "obj-39",
					"maxclass" : "toggle",
					"numinlets" : 1,
					"numoutlets" : 1,
					"outlettype" : [ "int" ],
					"parameter_enable" : 0,
					"patching_rect" : [ 126.000003308057785, 8.0, 24.0, 24.0 ]
				}

			}
, 			{
				"box" : 				{
					"angle" : 270.0,
					"bgcolor" : [ 1.0, 0.0, 0.0, 1.0 ],
					"id" : "obj-36",
					"maxclass" : "panel",
					"mode" : 0,
					"numinlets" : 1,
					"numoutlets" : 0,
					"patching_rect" : [ 32.500003308057785, 283.416665569488543, 4.0, 538.0 ],
					"proportion" : 0.5
				}

			}
, 			{
				"box" : 				{
					"bubble" : 1,
					"bubbleside" : 2,
					"fontface" : 1,
					"id" : "obj-35",
					"linecount" : 4,
					"maxclass" : "comment",
					"numinlets" : 1,
					"numoutlets" : 0,
					"patching_rect" : [ 6.000003308057785, 203.416665569488543, 57.0, 81.0 ],
					"text" : "FIRST: turn on the jit.world",
					"textcolor" : [ 1.0, 0.0, 0.0, 1.0 ]
				}

			}
, 			{
				"box" : 				{
					"bubble" : 1,
					"bubbleside" : 2,
					"id" : "obj-34",
					"linecount" : 6,
					"maxclass" : "comment",
					"numinlets" : 1,
					"numoutlets" : 0,
					"patching_rect" : [ 44.000003308057785, 60.000001759418524, 79.0, 108.0 ],
					"text" : "read in a HAP encoded video file for each jit.movie"
				}

			}
, 			{
				"box" : 				{
					"bubble" : 1,
					"id" : "obj-33",
					"linecount" : 3,
					"maxclass" : "comment",
					"numinlets" : 1,
					"numoutlets" : 0,
					"patching_rect" : [ 215.000003308057785, 148.33333618992998, 235.0, 52.0 ],
					"text" : "puts the word frame in front of the number so that jit.movie understands it as a message to jump to that frame"
				}

			}
, 			{
				"box" : 				{
					"bubble" : 1,
					"id" : "obj-32",
					"linecount" : 2,
					"maxclass" : "comment",
					"numinlets" : 1,
					"numoutlets" : 0,
					"patching_rect" : [ 222.000003308057785, 49.500001759418524, 250.0, 38.0 ],
					"text" : "this number sets the interval for the metro to bang the frame number, change it!"
				}

			}
, 			{
				"box" : 				{
					"bubble" : 1,
					"id" : "obj-30",
					"maxclass" : "comment",
					"numinlets" : 1,
					"numoutlets" : 0,
					"patching_rect" : [ 178.000003308057785, 120.000001759418524, 291.0, 24.0 ],
					"text" : "this number sets the frame to jump to, change it!"
				}

			}
, 			{
				"box" : 				{
					"id" : "obj-16",
					"maxclass" : "number",
					"numinlets" : 1,
					"numoutlets" : 2,
					"outlettype" : [ "", "bang" ],
					"parameter_enable" : 0,
					"patching_rect" : [ 927.000003308057785, 57.000001759418524, 50.0, 22.0 ]
				}

			}
, 			{
				"box" : 				{
					"id" : "obj-23",
					"maxclass" : "newobj",
					"numinlets" : 2,
					"numoutlets" : 1,
					"outlettype" : [ "bang" ],
					"patching_rect" : [ 883.000003308057785, 89.000001759418524, 63.0, 22.0 ],
					"text" : "metro 200"
				}

			}
, 			{
				"box" : 				{
					"id" : "obj-26",
					"maxclass" : "number",
					"numinlets" : 1,
					"numoutlets" : 2,
					"outlettype" : [ "", "bang" ],
					"parameter_enable" : 0,
					"patching_rect" : [ 883.000003308057785, 121.000001759418524, 50.0, 22.0 ]
				}

			}
, 			{
				"box" : 				{
					"id" : "obj-28",
					"maxclass" : "newobj",
					"numinlets" : 1,
					"numoutlets" : 1,
					"outlettype" : [ "" ],
					"patching_rect" : [ 883.000003308057785, 162.83333618992998, 87.0, 22.0 ],
					"text" : "prepend frame"
				}

			}
, 			{
				"box" : 				{
					"id" : "obj-29",
					"maxclass" : "message",
					"numinlets" : 2,
					"numoutlets" : 1,
					"outlettype" : [ "" ],
					"patching_rect" : [ 808.8333360850811, 112.166668013278979, 33.0, 22.0 ],
					"text" : "read"
				}

			}
, 			{
				"box" : 				{
					"id" : "obj-8",
					"maxclass" : "number",
					"numinlets" : 1,
					"numoutlets" : 2,
					"outlettype" : [ "", "bang" ],
					"parameter_enable" : 0,
					"patching_rect" : [ 550.000003308057785, 49.500001759418524, 50.0, 22.0 ]
				}

			}
, 			{
				"box" : 				{
					"id" : "obj-11",
					"maxclass" : "newobj",
					"numinlets" : 2,
					"numoutlets" : 1,
					"outlettype" : [ "bang" ],
					"patching_rect" : [ 506.000003308057785, 89.000001759418524, 63.0, 22.0 ],
					"text" : "metro 200"
				}

			}
, 			{
				"box" : 				{
					"id" : "obj-13",
					"maxclass" : "number",
					"numinlets" : 1,
					"numoutlets" : 2,
					"outlettype" : [ "", "bang" ],
					"parameter_enable" : 0,
					"patching_rect" : [ 506.000003308057785, 121.000001759418524, 50.0, 22.0 ]
				}

			}
, 			{
				"box" : 				{
					"id" : "obj-14",
					"maxclass" : "newobj",
					"numinlets" : 1,
					"numoutlets" : 1,
					"outlettype" : [ "" ],
					"patching_rect" : [ 506.000003308057785, 162.83333618992998, 87.0, 22.0 ],
					"text" : "prepend frame"
				}

			}
, 			{
				"box" : 				{
					"id" : "obj-15",
					"maxclass" : "message",
					"numinlets" : 2,
					"numoutlets" : 1,
					"outlettype" : [ "" ],
					"patching_rect" : [ 450.500003308057785, 162.83333618992998, 33.0, 22.0 ],
					"text" : "read"
				}

			}
, 			{
				"box" : 				{
					"id" : "obj-27",
					"maxclass" : "number",
					"numinlets" : 1,
					"numoutlets" : 2,
					"outlettype" : [ "", "bang" ],
					"parameter_enable" : 0,
					"patching_rect" : [ 170.000003308057785, 57.000001759418524, 50.0, 22.0 ]
				}

			}
, 			{
				"box" : 				{
					"id" : "obj-25",
					"maxclass" : "newobj",
					"numinlets" : 1,
					"numoutlets" : 1,
					"outlettype" : [ "" ],
					"patching_rect" : [ 861.400003308057876, 328.0, 207.0, 22.0 ],
					"text" : "loadmess 0.33 0. 0.66 1. 0.66 0. 1. 1."
				}

			}
, 			{
				"box" : 				{
					"id" : "obj-24",
					"maxclass" : "newobj",
					"numinlets" : 1,
					"numoutlets" : 1,
					"outlettype" : [ "" ],
					"patching_rect" : [ 484.400003308057876, 328.0, 221.0, 22.0 ],
					"text" : "loadmess 0.33 0. 0.66 1. 0.33 0. 0.66 1."
				}

			}
, 			{
				"box" : 				{
					"id" : "obj-19",
					"maxclass" : "newobj",
					"numinlets" : 1,
					"numoutlets" : 1,
					"outlettype" : [ "" ],
					"patching_rect" : [ 104.400003308057791, 328.0, 207.0, 22.0 ],
					"text" : "loadmess 0.33 0. 0.66 1. 0. 0. 0.33 1."
				}

			}
, 			{
				"box" : 				{
					"id" : "obj-55",
					"maxclass" : "newobj",
					"numinlets" : 2,
					"numoutlets" : 1,
					"outlettype" : [ "bang" ],
					"patching_rect" : [ 126.000003308057785, 89.000001759418524, 63.0, 22.0 ],
					"text" : "metro 200"
				}

			}
, 			{
				"box" : 				{
					"id" : "obj-54",
					"maxclass" : "number",
					"numinlets" : 1,
					"numoutlets" : 2,
					"outlettype" : [ "", "bang" ],
					"parameter_enable" : 0,
					"patching_rect" : [ 126.000003308057785, 121.000001759418524, 50.0, 22.0 ]
				}

			}
, 			{
				"box" : 				{
					"id" : "obj-50",
					"maxclass" : "newobj",
					"numinlets" : 1,
					"numoutlets" : 1,
					"outlettype" : [ "" ],
					"patching_rect" : [ 126.000003308057785, 162.83333618992998, 87.0, 22.0 ],
					"text" : "prepend frame"
				}

			}
, 			{
				"box" : 				{
					"id" : "obj-41",
					"maxclass" : "newobj",
					"numinlets" : 1,
					"numoutlets" : 8,
					"outlettype" : [ "float", "float", "float", "float", "float", "float", "float", "float" ],
					"patching_rect" : [ 861.400003308057876, 359.0, 256.299999999999955, 22.0 ],
					"text" : "unpack 0. 0. 0. 0. 0. 0. 0. 0."
				}

			}
, 			{
				"box" : 				{
					"id" : "obj-37",
					"maxclass" : "newobj",
					"numinlets" : 1,
					"numoutlets" : 8,
					"outlettype" : [ "float", "float", "float", "float", "float", "float", "float", "float" ],
					"patching_rect" : [ 484.400003308057876, 359.0, 256.299999999999955, 22.0 ],
					"text" : "unpack 0. 0. 0. 0. 0. 0. 0. 0."
				}

			}
, 			{
				"box" : 				{
					"id" : "obj-31",
					"maxclass" : "newobj",
					"numinlets" : 1,
					"numoutlets" : 8,
					"outlettype" : [ "float", "float", "float", "float", "float", "float", "float", "float" ],
					"patching_rect" : [ 104.400003308057791, 359.0, 256.299999999999955, 22.0 ],
					"text" : "unpack 0. 0. 0. 0. 0. 0. 0. 0."
				}

			}
, 			{
				"box" : 				{
					"annotation" : "## Grab a portion of a video and modify it ##",
					"bgmode" : 1,
					"border" : 0,
					"clickthrough" : 0,
					"enablehscroll" : 0,
					"enablevscroll" : 0,
					"id" : "obj-21",
					"lockeddragscroll" : 0,
					"maxclass" : "bpatcher",
					"name" : "vz.croppr.maxpat",
					"numinlets" : 11,
					"numoutlets" : 1,
					"offset" : [ 0.0, 0.0 ],
					"outlettype" : [ "jit_gl_texture" ],
					"patching_rect" : [ 827.500003308057785, 395.0, 358.0, 162.0 ],
					"prototypename" : "pixl",
					"varname" : "croppr[2]",
					"viewvisibility" : 1
				}

			}
, 			{
				"box" : 				{
					"annotation" : "## Grab a portion of a video and modify it ##",
					"bgmode" : 1,
					"border" : 0,
					"clickthrough" : 0,
					"enablehscroll" : 0,
					"enablevscroll" : 0,
					"id" : "obj-20",
					"lockeddragscroll" : 0,
					"maxclass" : "bpatcher",
					"name" : "vz.croppr.maxpat",
					"numinlets" : 11,
					"numoutlets" : 1,
					"offset" : [ 0.0, 0.0 ],
					"outlettype" : [ "jit_gl_texture" ],
					"patching_rect" : [ 453.666666150093079, 417.666667342185974, 358.0, 162.0 ],
					"prototypename" : "pixl",
					"varname" : "croppr[1]",
					"viewvisibility" : 1
				}

			}
, 			{
				"box" : 				{
					"annotation" : "## Grab a portion of a video and modify it ##",
					"bgmode" : 1,
					"border" : 0,
					"clickthrough" : 0,
					"enablehscroll" : 0,
					"enablevscroll" : 0,
					"id" : "obj-22",
					"lockeddragscroll" : 0,
					"maxclass" : "bpatcher",
					"name" : "vz.croppr.maxpat",
					"numinlets" : 11,
					"numoutlets" : 1,
					"offset" : [ 0.0, 0.0 ],
					"outlettype" : [ "jit_gl_texture" ],
					"patching_rect" : [ 57.500003308057785, 401.666666865348816, 358.0, 162.0 ],
					"prototypename" : "pixl",
					"varname" : "croppr",
					"viewvisibility" : 1
				}

			}
, 			{
				"box" : 				{
					"id" : "obj-12",
					"maxclass" : "jit.pwindow",
					"numinlets" : 1,
					"numoutlets" : 2,
					"outlettype" : [ "jit_matrix", "" ],
					"patching_rect" : [ 865.666674196720123, 235.666665569488543, 113.0, 84.75 ]
				}

			}
, 			{
				"box" : 				{
					"id" : "obj-17",
					"maxclass" : "newobj",
					"numinlets" : 1,
					"numoutlets" : 2,
					"outlettype" : [ "jit_gl_texture", "" ],
					"patching_rect" : [ 827.500003308057785, 201.33333618992998, 237.0, 22.0 ],
					"text" : "jit.movie @engine viddll @output_texture 1"
				}

			}
, 			{
				"box" : 				{
					"id" : "obj-7",
					"maxclass" : "jit.pwindow",
					"numinlets" : 1,
					"numoutlets" : 2,
					"outlettype" : [ "jit_matrix", "" ],
					"patching_rect" : [ 488.666674196720123, 235.666665569488543, 113.0, 84.75 ]
				}

			}
, 			{
				"box" : 				{
					"id" : "obj-10",
					"maxclass" : "newobj",
					"numinlets" : 1,
					"numoutlets" : 2,
					"outlettype" : [ "jit_gl_texture", "" ],
					"patching_rect" : [ 450.500003308057785, 201.33333618992998, 237.0, 22.0 ],
					"text" : "jit.movie @engine viddll @output_texture 1"
				}

			}
, 			{
				"box" : 				{
					"id" : "obj-3",
					"maxclass" : "jit.pwindow",
					"numinlets" : 1,
					"numoutlets" : 2,
					"outlettype" : [ "jit_matrix", "" ],
					"patching_rect" : [ 108.666674196720123, 235.666665569488543, 113.0, 84.75 ]
				}

			}
, 			{
				"box" : 				{
					"id" : "obj-4",
					"maxclass" : "toggle",
					"numinlets" : 1,
					"numoutlets" : 1,
					"outlettype" : [ "int" ],
					"parameter_enable" : 0,
					"patching_rect" : [ 22.500003308057785, 825.000001759418524, 24.0, 24.0 ]
				}

			}
, 			{
				"box" : 				{
					"fontface" : 0,
					"fontname" : "Arial",
					"fontsize" : 12.0,
					"id" : "obj-6",
					"maxclass" : "jit.fpsgui",
					"numinlets" : 1,
					"numoutlets" : 2,
					"outlettype" : [ "", "" ],
					"patching_rect" : [ 227.000003308057785, 886.333355247974396, 80.0, 36.0 ]
				}

			}
, 			{
				"box" : 				{
					"id" : "obj-2",
					"maxclass" : "newobj",
					"numinlets" : 1,
					"numoutlets" : 3,
					"outlettype" : [ "jit_matrix", "bang", "" ],
					"patching_rect" : [ 70.500003308057785, 860.0, 332.0, 22.0 ],
					"text" : "jit.world gransynth @dim 1920 1080 @erase_color 0. 0. 0. 1."
				}

			}
, 			{
				"box" : 				{
					"id" : "obj-1",
					"maxclass" : "newobj",
					"numinlets" : 1,
					"numoutlets" : 2,
					"outlettype" : [ "jit_gl_texture", "" ],
					"patching_rect" : [ 70.500003308057785, 201.33333618992998, 237.0, 22.0 ],
					"text" : "jit.movie @engine viddll @output_texture 1"
				}

			}
, 			{
				"box" : 				{
					"id" : "obj-5",
					"maxclass" : "message",
					"numinlets" : 2,
					"numoutlets" : 1,
					"outlettype" : [ "" ],
					"patching_rect" : [ 70.500003308057785, 168.000001759418524, 33.0, 22.0 ],
					"text" : "read"
				}

			}
, 			{
				"box" : 				{
					"angle" : 270.0,
					"bgcolor" : [ 1.0, 0.0, 0.0, 1.0 ],
					"id" : "obj-59",
					"maxclass" : "panel",
					"mode" : 0,
					"numinlets" : 1,
					"numoutlets" : 0,
					"patching_rect" : [ 15.500003308057785, 815.708334544162881, 38.0, 42.583334430511457 ],
					"proportion" : 0.5
				}

			}
 ],
		"lines" : [ 			{
				"patchline" : 				{
					"destination" : [ "obj-22", 0 ],
					"order" : 1,
					"source" : [ "obj-1", 0 ]
				}

			}
, 			{
				"patchline" : 				{
					"destination" : [ "obj-3", 0 ],
					"order" : 0,
					"source" : [ "obj-1", 0 ]
				}

			}
, 			{
				"patchline" : 				{
					"destination" : [ "obj-20", 0 ],
					"order" : 1,
					"source" : [ "obj-10", 0 ]
				}

			}
, 			{
				"patchline" : 				{
					"destination" : [ "obj-7", 0 ],
					"order" : 0,
					"source" : [ "obj-10", 0 ]
				}

			}
, 			{
				"patchline" : 				{
					"destination" : [ "obj-13", 0 ],
					"order" : 0,
					"source" : [ "obj-11", 0 ]
				}

			}
, 			{
				"patchline" : 				{
					"destination" : [ "obj-71", 0 ],
					"order" : 1,
					"source" : [ "obj-11", 0 ]
				}

			}
, 			{
				"patchline" : 				{
					"destination" : [ "obj-14", 0 ],
					"source" : [ "obj-13", 0 ]
				}

			}
, 			{
				"patchline" : 				{
					"destination" : [ "obj-10", 0 ],
					"source" : [ "obj-14", 0 ]
				}

			}
, 			{
				"patchline" : 				{
					"destination" : [ "obj-10", 0 ],
					"source" : [ "obj-15", 0 ]
				}

			}
, 			{
				"patchline" : 				{
					"destination" : [ "obj-23", 1 ],
					"source" : [ "obj-16", 0 ]
				}

			}
, 			{
				"patchline" : 				{
					"destination" : [ "obj-12", 0 ],
					"order" : 0,
					"source" : [ "obj-17", 0 ]
				}

			}
, 			{
				"patchline" : 				{
					"destination" : [ "obj-21", 0 ],
					"order" : 1,
					"source" : [ "obj-17", 0 ]
				}

			}
, 			{
				"patchline" : 				{
					"destination" : [ "obj-31", 0 ],
					"source" : [ "obj-19", 0 ]
				}

			}
, 			{
				"patchline" : 				{
					"destination" : [ "obj-6", 0 ],
					"source" : [ "obj-2", 1 ]
				}

			}
, 			{
				"patchline" : 				{
					"destination" : [ "obj-43", 1 ],
					"source" : [ "obj-20", 0 ]
				}

			}
, 			{
				"patchline" : 				{
					"destination" : [ "obj-44", 1 ],
					"midpoints" : [ 837.000003308057785, 708.0, 129.500003308057785, 708.0 ],
					"source" : [ "obj-21", 0 ]
				}

			}
, 			{
				"patchline" : 				{
					"destination" : [ "obj-43", 0 ],
					"source" : [ "obj-22", 0 ]
				}

			}
, 			{
				"patchline" : 				{
					"destination" : [ "obj-26", 0 ],
					"order" : 0,
					"source" : [ "obj-23", 0 ]
				}

			}
, 			{
				"patchline" : 				{
					"destination" : [ "obj-65", 0 ],
					"order" : 1,
					"source" : [ "obj-23", 0 ]
				}

			}
, 			{
				"patchline" : 				{
					"destination" : [ "obj-37", 0 ],
					"source" : [ "obj-24", 0 ]
				}

			}
, 			{
				"patchline" : 				{
					"destination" : [ "obj-41", 0 ],
					"source" : [ "obj-25", 0 ]
				}

			}
, 			{
				"patchline" : 				{
					"destination" : [ "obj-28", 0 ],
					"source" : [ "obj-26", 0 ]
				}

			}
, 			{
				"patchline" : 				{
					"destination" : [ "obj-55", 1 ],
					"source" : [ "obj-27", 0 ]
				}

			}
, 			{
				"patchline" : 				{
					"destination" : [ "obj-17", 0 ],
					"source" : [ "obj-28", 0 ]
				}

			}
, 			{
				"patchline" : 				{
					"destination" : [ "obj-17", 0 ],
					"source" : [ "obj-29", 0 ]
				}

			}
, 			{
				"patchline" : 				{
					"destination" : [ "obj-22", 8 ],
					"source" : [ "obj-31", 7 ]
				}

			}
, 			{
				"patchline" : 				{
					"destination" : [ "obj-22", 7 ],
					"source" : [ "obj-31", 6 ]
				}

			}
, 			{
				"patchline" : 				{
					"destination" : [ "obj-22", 6 ],
					"source" : [ "obj-31", 5 ]
				}

			}
, 			{
				"patchline" : 				{
					"destination" : [ "obj-22", 5 ],
					"source" : [ "obj-31", 4 ]
				}

			}
, 			{
				"patchline" : 				{
					"destination" : [ "obj-22", 4 ],
					"source" : [ "obj-31", 3 ]
				}

			}
, 			{
				"patchline" : 				{
					"destination" : [ "obj-22", 3 ],
					"source" : [ "obj-31", 2 ]
				}

			}
, 			{
				"patchline" : 				{
					"destination" : [ "obj-22", 2 ],
					"source" : [ "obj-31", 1 ]
				}

			}
, 			{
				"patchline" : 				{
					"destination" : [ "obj-22", 1 ],
					"source" : [ "obj-31", 0 ]
				}

			}
, 			{
				"patchline" : 				{
					"destination" : [ "obj-20", 8 ],
					"source" : [ "obj-37", 7 ]
				}

			}
, 			{
				"patchline" : 				{
					"destination" : [ "obj-20", 7 ],
					"source" : [ "obj-37", 6 ]
				}

			}
, 			{
				"patchline" : 				{
					"destination" : [ "obj-20", 6 ],
					"source" : [ "obj-37", 5 ]
				}

			}
, 			{
				"patchline" : 				{
					"destination" : [ "obj-20", 5 ],
					"source" : [ "obj-37", 4 ]
				}

			}
, 			{
				"patchline" : 				{
					"destination" : [ "obj-20", 4 ],
					"source" : [ "obj-37", 3 ]
				}

			}
, 			{
				"patchline" : 				{
					"destination" : [ "obj-20", 3 ],
					"source" : [ "obj-37", 2 ]
				}

			}
, 			{
				"patchline" : 				{
					"destination" : [ "obj-20", 2 ],
					"source" : [ "obj-37", 1 ]
				}

			}
, 			{
				"patchline" : 				{
					"destination" : [ "obj-20", 1 ],
					"source" : [ "obj-37", 0 ]
				}

			}
, 			{
				"patchline" : 				{
					"destination" : [ "obj-11", 0 ],
					"midpoints" : [ 135.500003308057785, 43.000000879709262, 515.500003308057785, 43.000000879709262 ],
					"order" : 1,
					"source" : [ "obj-39", 0 ]
				}

			}
, 			{
				"patchline" : 				{
					"destination" : [ "obj-23", 0 ],
					"midpoints" : [ 135.500003308057785, 36.000000879709262, 892.500003308057785, 36.000000879709262 ],
					"order" : 0,
					"source" : [ "obj-39", 0 ]
				}

			}
, 			{
				"patchline" : 				{
					"destination" : [ "obj-55", 0 ],
					"order" : 2,
					"source" : [ "obj-39", 0 ]
				}

			}
, 			{
				"patchline" : 				{
					"destination" : [ "obj-2", 0 ],
					"source" : [ "obj-4", 0 ]
				}

			}
, 			{
				"patchline" : 				{
					"destination" : [ "obj-21", 8 ],
					"source" : [ "obj-41", 7 ]
				}

			}
, 			{
				"patchline" : 				{
					"destination" : [ "obj-21", 7 ],
					"source" : [ "obj-41", 6 ]
				}

			}
, 			{
				"patchline" : 				{
					"destination" : [ "obj-21", 6 ],
					"source" : [ "obj-41", 5 ]
				}

			}
, 			{
				"patchline" : 				{
					"destination" : [ "obj-21", 5 ],
					"source" : [ "obj-41", 4 ]
				}

			}
, 			{
				"patchline" : 				{
					"destination" : [ "obj-21", 4 ],
					"source" : [ "obj-41", 3 ]
				}

			}
, 			{
				"patchline" : 				{
					"destination" : [ "obj-21", 3 ],
					"source" : [ "obj-41", 2 ]
				}

			}
, 			{
				"patchline" : 				{
					"destination" : [ "obj-21", 2 ],
					"source" : [ "obj-41", 1 ]
				}

			}
, 			{
				"patchline" : 				{
					"destination" : [ "obj-21", 1 ],
					"source" : [ "obj-41", 0 ]
				}

			}
, 			{
				"patchline" : 				{
					"destination" : [ "obj-44", 0 ],
					"source" : [ "obj-43", 0 ]
				}

			}
, 			{
				"patchline" : 				{
					"destination" : [ "obj-2", 0 ],
					"source" : [ "obj-44", 0 ]
				}

			}
, 			{
				"patchline" : 				{
					"destination" : [ "obj-1", 0 ],
					"source" : [ "obj-5", 0 ]
				}

			}
, 			{
				"patchline" : 				{
					"destination" : [ "obj-1", 0 ],
					"source" : [ "obj-50", 0 ]
				}

			}
, 			{
				"patchline" : 				{
					"destination" : [ "obj-50", 0 ],
					"source" : [ "obj-54", 0 ]
				}

			}
, 			{
				"patchline" : 				{
					"destination" : [ "obj-54", 0 ],
					"order" : 1,
					"source" : [ "obj-55", 0 ]
				}

			}
, 			{
				"patchline" : 				{
					"destination" : [ "obj-68", 0 ],
					"order" : 0,
					"source" : [ "obj-55", 0 ]
				}

			}
, 			{
				"patchline" : 				{
					"destination" : [ "obj-74", 1 ],
					"order" : 0,
					"source" : [ "obj-57", 0 ]
				}

			}
, 			{
				"patchline" : 				{
					"destination" : [ "obj-76", 0 ],
					"order" : 1,
					"source" : [ "obj-57", 0 ]
				}

			}
, 			{
				"patchline" : 				{
					"destination" : [ "obj-57", 0 ],
					"source" : [ "obj-65", 0 ]
				}

			}
, 			{
				"patchline" : 				{
					"destination" : [ "obj-74", 0 ],
					"source" : [ "obj-67", 0 ]
				}

			}
, 			{
				"patchline" : 				{
					"destination" : [ "obj-67", 0 ],
					"source" : [ "obj-68", 0 ]
				}

			}
, 			{
				"patchline" : 				{
					"destination" : [ "obj-73", 0 ],
					"source" : [ "obj-71", 0 ]
				}

			}
, 			{
				"patchline" : 				{
					"destination" : [ "obj-76", 2 ],
					"source" : [ "obj-73", 0 ]
				}

			}
, 			{
				"patchline" : 				{
					"destination" : [ "obj-84", 0 ],
					"source" : [ "obj-74", 0 ]
				}

			}
, 			{
				"patchline" : 				{
					"destination" : [ "obj-46", 1 ],
					"source" : [ "obj-76", 1 ]
				}

			}
, 			{
				"patchline" : 				{
					"destination" : [ "obj-46", 0 ],
					"source" : [ "obj-76", 0 ]
				}

			}
, 			{
				"patchline" : 				{
					"destination" : [ "obj-20", 5 ],
					"order" : 2,
					"source" : [ "obj-79", 0 ]
				}

			}
, 			{
				"patchline" : 				{
					"destination" : [ "obj-21", 5 ],
					"order" : 1,
					"source" : [ "obj-79", 0 ]
				}

			}
, 			{
				"patchline" : 				{
					"destination" : [ "obj-22", 5 ],
					"order" : 0,
					"source" : [ "obj-79", 0 ]
				}

			}
, 			{
				"patchline" : 				{
					"destination" : [ "obj-84", 1 ],
					"order" : 3,
					"source" : [ "obj-79", 0 ]
				}

			}
, 			{
				"patchline" : 				{
					"destination" : [ "obj-11", 1 ],
					"source" : [ "obj-8", 0 ]
				}

			}
, 			{
				"patchline" : 				{
					"destination" : [ "obj-76", 1 ],
					"source" : [ "obj-84", 0 ]
				}

			}
, 			{
				"patchline" : 				{
					"destination" : [ "obj-20", 6 ],
					"order" : 1,
					"source" : [ "obj-85", 0 ]
				}

			}
, 			{
				"patchline" : 				{
					"destination" : [ "obj-21", 6 ],
					"order" : 2,
					"source" : [ "obj-85", 0 ]
				}

			}
, 			{
				"patchline" : 				{
					"destination" : [ "obj-22", 6 ],
					"order" : 0,
					"source" : [ "obj-85", 0 ]
				}

			}
, 			{
				"patchline" : 				{
					"destination" : [ "obj-84", 2 ],
					"order" : 3,
					"source" : [ "obj-85", 0 ]
				}

			}
, 			{
				"patchline" : 				{
					"destination" : [ "obj-79", 0 ],
					"order" : 1,
					"source" : [ "obj-86", 0 ]
				}

			}
, 			{
				"patchline" : 				{
					"destination" : [ "obj-85", 0 ],
					"order" : 0,
					"source" : [ "obj-86", 0 ]
				}

			}
 ],
		"parameters" : 		{
			"obj-20::obj-111" : [ "Use dest[1]", "Use dest", 0 ],
			"obj-20::obj-113" : [ "Use src[1]", "Use src", 0 ],
			"obj-20::obj-121" : [ "Erase[1]", "Erase", 0 ],
			"obj-20::obj-128" : [ "range[14]", "range", 0 ],
			"obj-20::obj-150" : [ "Y crop[1]", "Y crop", 0 ],
			"obj-20::obj-151" : [ "X crop[1]", "X crop", 0 ],
			"obj-20::obj-189" : [ "Y output[1]", "Y output", 0 ],
			"obj-20::obj-190" : [ "X output[1]", "X output", 0 ],
			"obj-20::obj-200" : [ "pictctrl[14]", "pictctrl[1]", 0 ],
			"obj-20::obj-204" : [ "pictctrl[13]", "pictctrl[1]", 0 ],
			"obj-20::obj-206" : [ "pictctrl[6]", "pictctrl[1]", 0 ],
			"obj-20::obj-209" : [ "pictctrl[11]", "pictctrl[1]", 0 ],
			"obj-20::obj-28" : [ "pictctrl[40]", "pictctrl[1]", 0 ],
			"obj-20::obj-49" : [ "pictctrl[7]", "pictctrl[1]", 0 ],
			"obj-20::obj-51" : [ "pictctrl[12]", "pictctrl[1]", 0 ],
			"obj-20::obj-56::obj-23" : [ "gswitch2[3]", "gswitch2", 0 ],
			"obj-20::obj-7" : [ "pictctrl[10]", "pictctrl[1]", 0 ],
			"obj-20::obj-77" : [ "pictctrl[8]", "pictctrl[1]", 0 ],
			"obj-20::obj-8" : [ "range[13]", "range", 0 ],
			"obj-20::obj-89" : [ "pictctrl[9]", "pictctrl[1]", 0 ],
			"obj-21::obj-111" : [ "Use dest[2]", "Use dest", 0 ],
			"obj-21::obj-113" : [ "Use src[2]", "Use src", 0 ],
			"obj-21::obj-121" : [ "Erase[2]", "Erase", 0 ],
			"obj-21::obj-128" : [ "range[7]", "range", 0 ],
			"obj-21::obj-150" : [ "Y crop[2]", "Y crop", 0 ],
			"obj-21::obj-151" : [ "X crop[2]", "X crop", 0 ],
			"obj-21::obj-189" : [ "Y output[2]", "Y output", 0 ],
			"obj-21::obj-190" : [ "X output[2]", "X output", 0 ],
			"obj-21::obj-200" : [ "pictctrl[16]", "pictctrl[1]", 0 ],
			"obj-21::obj-204" : [ "pictctrl[47]", "pictctrl[1]", 0 ],
			"obj-21::obj-206" : [ "pictctrl[46]", "pictctrl[1]", 0 ],
			"obj-21::obj-209" : [ "pictctrl[44]", "pictctrl[1]", 0 ],
			"obj-21::obj-28" : [ "pictctrl[42]", "pictctrl[1]", 0 ],
			"obj-21::obj-49" : [ "pictctrl[17]", "pictctrl[1]", 0 ],
			"obj-21::obj-51" : [ "pictctrl[41]", "pictctrl[1]", 0 ],
			"obj-21::obj-56::obj-23" : [ "gswitch2[4]", "gswitch2", 0 ],
			"obj-21::obj-7" : [ "pictctrl[15]", "pictctrl[1]", 0 ],
			"obj-21::obj-77" : [ "pictctrl[43]", "pictctrl[1]", 0 ],
			"obj-21::obj-8" : [ "range[6]", "range", 0 ],
			"obj-21::obj-89" : [ "pictctrl[45]", "pictctrl[1]", 0 ],
			"obj-22::obj-111" : [ "Use dest", "Use dest", 0 ],
			"obj-22::obj-113" : [ "Use src", "Use src", 0 ],
			"obj-22::obj-121" : [ "Erase", "Erase", 0 ],
			"obj-22::obj-128" : [ "range[24]", "range", 0 ],
			"obj-22::obj-150" : [ "Y crop", "Y crop", 0 ],
			"obj-22::obj-151" : [ "X crop", "X crop", 0 ],
			"obj-22::obj-189" : [ "Y output", "Y output", 0 ],
			"obj-22::obj-190" : [ "X output", "X output", 0 ],
			"obj-22::obj-200" : [ "pictctrl[39]", "pictctrl[1]", 0 ],
			"obj-22::obj-204" : [ "pictctrl[35]", "pictctrl[1]", 0 ],
			"obj-22::obj-206" : [ "pictctrl[21]", "pictctrl[1]", 0 ],
			"obj-22::obj-209" : [ "pictctrl[38]", "pictctrl[1]", 0 ],
			"obj-22::obj-28" : [ "pictctrl[22]", "pictctrl[1]", 0 ],
			"obj-22::obj-49" : [ "pictctrl[34]", "pictctrl[1]", 0 ],
			"obj-22::obj-51" : [ "pictctrl[37]", "pictctrl[1]", 0 ],
			"obj-22::obj-56::obj-23" : [ "gswitch2[2]", "gswitch2", 0 ],
			"obj-22::obj-7" : [ "pictctrl[23]", "pictctrl[1]", 0 ],
			"obj-22::obj-77" : [ "pictctrl[29]", "pictctrl[1]", 0 ],
			"obj-22::obj-8" : [ "range[5]", "range", 0 ],
			"obj-22::obj-89" : [ "pictctrl[36]", "pictctrl[1]", 0 ],
			"obj-43::obj-29" : [ "range[4]", "range", 0 ],
			"obj-43::obj-31::obj-23" : [ "gswitch2[6]", "gswitch2", 0 ],
			"obj-43::obj-32::obj-23" : [ "gswitch2[5]", "gswitch2", 0 ],
			"obj-43::obj-36" : [ "pictctrl[5]", "pictctrl[1]", 0 ],
			"obj-43::obj-37" : [ "umenu[3]", "umenu", 0 ],
			"obj-44::obj-29" : [ "range[8]", "range", 0 ],
			"obj-44::obj-31::obj-23" : [ "gswitch2[13]", "gswitch2", 0 ],
			"obj-44::obj-32::obj-23" : [ "gswitch2[11]", "gswitch2", 0 ],
			"obj-44::obj-36" : [ "pictctrl[48]", "pictctrl[1]", 0 ],
			"obj-44::obj-37" : [ "umenu[4]", "umenu", 0 ],
			"obj-46::obj-22" : [ "Mute[1]", "Mute", 0 ],
			"obj-46::obj-52" : [ "Level", "Level", 0 ],
			"obj-46::obj-55" : [ "DSP", "DSP", 0 ],
			"obj-46::obj-56" : [ "OutputChannel", "OutputChannel", 0 ],
			"obj-74::obj-20" : [ "Noise[1]", "Noise Thresh", 0 ],
			"obj-74::obj-55" : [ "Bypass[1]", "Bypass", 0 ],
			"obj-74::obj-7" : [ "Q[1]", "Filter Q", 0 ],
			"obj-76::obj-104" : [ "ch8_mute", "Mute", 0 ],
			"obj-76::obj-105" : [ "ch5_level", "5", 0 ],
			"obj-76::obj-106" : [ "ch5_pan", "Pan", 0 ],
			"obj-76::obj-22" : [ "ch1_pan", "Pan", 0 ],
			"obj-76::obj-23" : [ "ch1_level", "1", 0 ],
			"obj-76::obj-28" : [ "ch1_mute", "Mute", 0 ],
			"obj-76::obj-37" : [ "Mute", "Mute", 0 ],
			"obj-76::obj-41" : [ "ch2_mute", "Mute", 0 ],
			"obj-76::obj-42" : [ "ch2_level", "2", 0 ],
			"obj-76::obj-43" : [ "ch2_pan", "Pan", 0 ],
			"obj-76::obj-53" : [ "ch3_mute", "Mute", 0 ],
			"obj-76::obj-54" : [ "ch4_level", "4", 0 ],
			"obj-76::obj-55" : [ "ch4_pan", "Pan", 0 ],
			"obj-76::obj-63" : [ "ch4_mute", "Mute", 0 ],
			"obj-76::obj-64" : [ "ch3_level", "3", 0 ],
			"obj-76::obj-65" : [ "ch3_pan", "Pan", 0 ],
			"obj-76::obj-73" : [ "ch5_mute", "Mute", 0 ],
			"obj-76::obj-74" : [ "ch8_level", "8", 0 ],
			"obj-76::obj-75" : [ "ch8_pan", "Pan", 0 ],
			"obj-76::obj-84" : [ "ch6_mute", "Mute", 0 ],
			"obj-76::obj-85" : [ "ch7_level", "7", 0 ],
			"obj-76::obj-86" : [ "ch7_pan", "Pan", 0 ],
			"obj-76::obj-94" : [ "ch7_mute", "Mute", 0 ],
			"obj-76::obj-95" : [ "ch6_level", "6", 0 ],
			"obj-76::obj-96" : [ "ch6_pan", "Pan", 0 ],
			"obj-84::obj-102" : [ "CV1", "CV1", 0 ],
			"obj-84::obj-103" : [ "CV2", "CV2", 0 ],
			"obj-84::obj-11" : [ "Res", "Res", 0 ],
			"obj-84::obj-2" : [ "Freq", "Freq", 0 ],
			"obj-84::obj-55" : [ "power", "power", 0 ],
			"obj-84::obj-68" : [ "CV3", "CV3", 0 ],
			"obj-84::obj-7" : [ "Offset", "Offset", 0 ],
			"obj-84::obj-80" : [ "FreqMode", "FreqMode", 0 ],
			"parameterbanks" : 			{

			}
,
			"parameter_overrides" : 			{
				"obj-20::obj-128" : 				{
					"parameter_longname" : "range[14]"
				}
,
				"obj-20::obj-200" : 				{
					"parameter_longname" : "pictctrl[14]"
				}
,
				"obj-20::obj-204" : 				{
					"parameter_longname" : "pictctrl[13]"
				}
,
				"obj-20::obj-206" : 				{
					"parameter_longname" : "pictctrl[6]"
				}
,
				"obj-20::obj-209" : 				{
					"parameter_longname" : "pictctrl[11]"
				}
,
				"obj-20::obj-28" : 				{
					"parameter_longname" : "pictctrl[40]"
				}
,
				"obj-20::obj-49" : 				{
					"parameter_longname" : "pictctrl[7]"
				}
,
				"obj-20::obj-51" : 				{
					"parameter_longname" : "pictctrl[12]"
				}
,
				"obj-20::obj-7" : 				{
					"parameter_longname" : "pictctrl[10]"
				}
,
				"obj-20::obj-77" : 				{
					"parameter_longname" : "pictctrl[8]"
				}
,
				"obj-20::obj-89" : 				{
					"parameter_longname" : "pictctrl[9]"
				}
,
				"obj-21::obj-128" : 				{
					"parameter_longname" : "range[7]"
				}
,
				"obj-21::obj-200" : 				{
					"parameter_longname" : "pictctrl[16]"
				}
,
				"obj-21::obj-204" : 				{
					"parameter_longname" : "pictctrl[47]"
				}
,
				"obj-21::obj-206" : 				{
					"parameter_longname" : "pictctrl[46]"
				}
,
				"obj-21::obj-209" : 				{
					"parameter_longname" : "pictctrl[44]"
				}
,
				"obj-21::obj-28" : 				{
					"parameter_longname" : "pictctrl[42]"
				}
,
				"obj-21::obj-49" : 				{
					"parameter_longname" : "pictctrl[17]"
				}
,
				"obj-21::obj-51" : 				{
					"parameter_longname" : "pictctrl[41]"
				}
,
				"obj-21::obj-7" : 				{
					"parameter_longname" : "pictctrl[15]"
				}
,
				"obj-21::obj-77" : 				{
					"parameter_longname" : "pictctrl[43]"
				}
,
				"obj-21::obj-89" : 				{
					"parameter_longname" : "pictctrl[45]"
				}
,
				"obj-44::obj-36" : 				{
					"parameter_longname" : "pictctrl[48]"
				}
,
				"obj-44::obj-37" : 				{
					"parameter_longname" : "umenu[4]"
				}
,
				"obj-46::obj-22" : 				{
					"parameter_longname" : "Mute[1]"
				}

			}
,
			"inherited_shortname" : 1
		}
,
		"dependency_cache" : [ 			{
				"name" : "hap.maxsnap",
				"bootpath" : "~/Documents/Max 8/Snapshots",
				"type" : "mx@s",
				"implicit" : 1
			}
, 			{
				"name" : "vz.croppr.maxpat",
				"bootpath" : "C74:/packages/vizzie/patchers",
				"type" : "JSON",
				"implicit" : 1
			}
, 			{
				"name" : "vzgl-pwindow.maxpat",
				"bootpath" : "C74:/packages/vizzie/patchers/utils",
				"type" : "JSON",
				"implicit" : 1
			}
, 			{
				"name" : "video-handler.maxpat",
				"bootpath" : "C74:/packages/vizzie/patchers/utils",
				"type" : "JSON",
				"implicit" : 1
			}
, 			{
				"name" : "vzgl-outputdim.maxpat",
				"bootpath" : "C74:/packages/vizzie/patchers/utils",
				"type" : "JSON",
				"implicit" : 1
			}
, 			{
				"name" : "data-handler.maxpat",
				"bootpath" : "C74:/packages/vizzie/patchers/utils",
				"type" : "JSON",
				"implicit" : 1
			}
, 			{
				"name" : "vzgl-object.maxpat",
				"bootpath" : "C74:/packages/vizzie/patchers/utils",
				"type" : "JSON",
				"implicit" : 1
			}
, 			{
				"name" : "vizzie-global.js",
				"bootpath" : "C74:/packages/vizzie/code",
				"type" : "TEXT",
				"implicit" : 1
			}
, 			{
				"name" : "srcdimcrop.genjit",
				"bootpath" : "~/AppData/Roaming/Cycling '74/Max 8/examples/jitter-examples/gen",
				"type" : "gJIT",
				"implicit" : 1
			}
, 			{
				"name" : "dstdimcrop.genjit",
				"bootpath" : "~/AppData/Roaming/Cycling '74/Max 8/examples/jitter-examples/gen",
				"type" : "gJIT",
				"implicit" : 1
			}
, 			{
				"name" : "exact_menu.maxpat",
				"bootpath" : "C74:/packages/vizzie/patchers/utils",
				"type" : "JSON",
				"implicit" : 1
			}
, 			{
				"name" : "vz.oper8r.maxpat",
				"bootpath" : "C74:/packages/vizzie/patchers",
				"type" : "JSON",
				"implicit" : 1
			}
, 			{
				"name" : "vzgl-routegl.maxpat",
				"bootpath" : "C74:/packages/vizzie/patchers/utils",
				"type" : "JSON",
				"implicit" : 1
			}
, 			{
				"name" : "vzgl-disable.maxpat",
				"bootpath" : "C74:/packages/vizzie/patchers/utils",
				"type" : "JSON",
				"implicit" : 1
			}
, 			{
				"name" : "bp.Stereo.maxpat",
				"bootpath" : "C74:/packages/Beap/clippings/BEAP/Output",
				"type" : "JSON",
				"implicit" : 1
			}
, 			{
				"name" : "Chant Breath 001.wav",
				"bootpath" : "~/Desktop/samples/Chants",
				"type" : "WAVE",
				"implicit" : 1
			}
, 			{
				"name" : "VOICE - YEAH.wav",
				"bootpath" : "~/Desktop/samples/AndrewH/FOODS & DUDES SAMPLE PACK/VOICE",
				"type" : "WAVE",
				"implicit" : 1
			}
, 			{
				"name" : "VOICE - WOO.wav",
				"bootpath" : "~/Desktop/samples/AndrewH/FOODS & DUDES SAMPLE PACK/VOICE",
				"type" : "WAVE",
				"implicit" : 1
			}
, 			{
				"name" : "bp.Classic Vocoder.maxpat",
				"bootpath" : "C74:/packages/Beap/clippings/BEAP/Effects",
				"type" : "JSON",
				"implicit" : 1
			}
, 			{
				"name" : "background_sm.maxpat",
				"bootpath" : "C74:/packages/Beap/misc",
				"type" : "JSON",
				"implicit" : 1
			}
, 			{
				"name" : "classic-channel.maxpat",
				"bootpath" : "~/AppData/Roaming/Cycling '74/Max 8/examples/effects/classic-vocoder-folder/lib",
				"type" : "JSON",
				"implicit" : 1
			}
, 			{
				"name" : "bp.Pan Mixer.maxpat",
				"bootpath" : "C74:/packages/Beap/clippings/BEAP/Mixers",
				"type" : "JSON",
				"implicit" : 1
			}
, 			{
				"name" : "M4L.pan1~.maxpat",
				"bootpath" : "C74:/patchers/m4l/Tools resources",
				"type" : "JSON",
				"implicit" : 1
			}
, 			{
				"name" : "bp.HPF.maxpat",
				"bootpath" : "C74:/packages/Beap/clippings/BEAP/Filter",
				"type" : "JSON",
				"implicit" : 1
			}
 ],
		"autosave" : 0,
		"snapshot" : 		{
			"filetype" : "C74Snapshot",
			"version" : 2,
			"minorversion" : 0,
			"name" : "snapshotlist",
			"origin" : "jpatcher",
			"type" : "list",
			"subtype" : "Undefined",
			"embed" : 1,
			"snapshot" : 			{
				"valuedictionary" : 				{
					"parameter_values" : 					{
						"Bypass[1]" : 0.0,
						"CV1" : 74.015748031496017,
						"CV2" : 70.866141732283452,
						"CV3" : 0.0,
						"DSP" : 1.0,
						"Freq" : 6766.246564310111353,
						"FreqMode" : 0.0,
						"Level" : -6.923361693022706,
						"Mute" : 0.0,
						"Mute[1]" : 0.0,
						"Noise[1]" : 0.0,
						"Offset" : 0.0,
						"OutputChannel" : 0.0,
						"Q[1]" : 25.90551142519686,
						"Res" : 0.0,
						"ch1_level" : -0.812603598880031,
						"ch1_mute" : 0.0,
						"ch1_pan" : 50.0,
						"ch2_level" : 6.0,
						"ch2_mute" : 0.0,
						"ch2_pan" : 0.999999999999993,
						"ch3_level" : -8.207879356324206,
						"ch3_mute" : 0.0,
						"ch3_pan" : -50.0,
						"ch4_level" : 0.0,
						"ch4_mute" : 0.0,
						"ch4_pan" : 0.0,
						"ch5_level" : 0.0,
						"ch5_mute" : 0.0,
						"ch5_pan" : 0.0,
						"ch6_level" : 0.0,
						"ch6_mute" : 0.0,
						"ch6_pan" : 0.0,
						"ch7_level" : 0.0,
						"ch7_mute" : 0.0,
						"ch7_pan" : 0.0,
						"ch8_level" : 0.0,
						"ch8_mute" : 0.0,
						"ch8_pan" : 0.0,
						"gswitch2[11]" : 1.0,
						"gswitch2[13]" : 1.0,
						"gswitch2[2]" : 1.0,
						"gswitch2[3]" : 1.0,
						"gswitch2[4]" : 1.0,
						"gswitch2[5]" : 1.0,
						"gswitch2[6]" : 1.0,
						"power" : 0.0,
						"umenu[3]" : 3.0,
						"umenu[4]" : 3.0,
						"blob" : 						{
							"Erase" : [ 0 ],
							"Erase[1]" : [ 0 ],
							"Erase[2]" : [ 0 ],
							"Use dest" : [ 1 ],
							"Use dest[1]" : [ 1 ],
							"Use dest[2]" : [ 1 ],
							"Use src" : [ 1 ],
							"Use src[1]" : [ 1 ],
							"Use src[2]" : [ 1 ],
							"X crop" : [ 0.272171263301044, 0.749235497702152 ],
							"X crop[1]" : [ 0.33, 0.66 ],
							"X crop[2]" : [ 0.35779817716791, 0.761467913968847 ],
							"X output" : [ 0.33, 0.79999 ],
							"X output[1]" : [ 0.66, 0.79999 ],
							"X output[2]" : [ 0.79999, 1.0 ],
							"Y crop" : [ 0.0, 1.0 ],
							"Y crop[1]" : [ 0.0, 0.874999974668026 ],
							"Y crop[2]" : [ 0.0, 1.0 ],
							"Y output" : [ 0.0, 0.8 ],
							"Y output[1]" : [ 0.0, 0.8 ],
							"Y output[2]" : [ 0.0, 0.8 ],
							"range[13]" : [ 1 ],
							"range[4]" : [ 1 ],
							"range[5]" : [ 1 ],
							"range[6]" : [ 1 ],
							"range[8]" : [ 1 ]
						}

					}

				}

			}
,
			"snapshotlist" : 			{
				"current_snapshot" : 0,
				"entries" : [ 					{
						"filetype" : "C74Snapshot",
						"version" : 2,
						"minorversion" : 0,
						"name" : "hap",
						"origin" : "hap",
						"type" : "patcher",
						"subtype" : "Undefined",
						"embed" : 1,
						"snapshot" : 						{
							"valuedictionary" : 							{
								"parameter_values" : 								{
									"Bypass[1]" : 0.0,
									"CV1" : 74.015748031496017,
									"CV2" : 70.866141732283452,
									"CV3" : 0.0,
									"DSP" : 1.0,
									"Freq" : 6766.246564310111353,
									"FreqMode" : 0.0,
									"Level" : -6.923361693022706,
									"Mute" : 0.0,
									"Mute[1]" : 0.0,
									"Noise[1]" : 0.0,
									"Offset" : 0.0,
									"OutputChannel" : 0.0,
									"Q[1]" : 25.90551142519686,
									"Res" : 0.0,
									"ch1_level" : -0.812603598880031,
									"ch1_mute" : 0.0,
									"ch1_pan" : 50.0,
									"ch2_level" : 6.0,
									"ch2_mute" : 0.0,
									"ch2_pan" : 0.999999999999993,
									"ch3_level" : -8.207879356324206,
									"ch3_mute" : 0.0,
									"ch3_pan" : -50.0,
									"ch4_level" : 0.0,
									"ch4_mute" : 0.0,
									"ch4_pan" : 0.0,
									"ch5_level" : 0.0,
									"ch5_mute" : 0.0,
									"ch5_pan" : 0.0,
									"ch6_level" : 0.0,
									"ch6_mute" : 0.0,
									"ch6_pan" : 0.0,
									"ch7_level" : 0.0,
									"ch7_mute" : 0.0,
									"ch7_pan" : 0.0,
									"ch8_level" : 0.0,
									"ch8_mute" : 0.0,
									"ch8_pan" : 0.0,
									"gswitch2[11]" : 1.0,
									"gswitch2[13]" : 1.0,
									"gswitch2[2]" : 1.0,
									"gswitch2[3]" : 1.0,
									"gswitch2[4]" : 1.0,
									"gswitch2[5]" : 1.0,
									"gswitch2[6]" : 1.0,
									"power" : 0.0,
									"umenu[3]" : 3.0,
									"umenu[4]" : 3.0,
									"blob" : 									{
										"Erase" : [ 0 ],
										"Erase[1]" : [ 0 ],
										"Erase[2]" : [ 0 ],
										"Use dest" : [ 1 ],
										"Use dest[1]" : [ 1 ],
										"Use dest[2]" : [ 1 ],
										"Use src" : [ 1 ],
										"Use src[1]" : [ 1 ],
										"Use src[2]" : [ 1 ],
										"X crop" : [ 0.272171263301044, 0.749235497702152 ],
										"X crop[1]" : [ 0.33, 0.66 ],
										"X crop[2]" : [ 0.35779817716791, 0.761467913968847 ],
										"X output" : [ 0.33, 0.79999 ],
										"X output[1]" : [ 0.66, 0.79999 ],
										"X output[2]" : [ 0.79999, 1.0 ],
										"Y crop" : [ 0.0, 1.0 ],
										"Y crop[1]" : [ 0.0, 0.874999974668026 ],
										"Y crop[2]" : [ 0.0, 1.0 ],
										"Y output" : [ 0.0, 0.8 ],
										"Y output[1]" : [ 0.0, 0.8 ],
										"Y output[2]" : [ 0.0, 0.8 ],
										"range[13]" : [ 1 ],
										"range[4]" : [ 1 ],
										"range[5]" : [ 1 ],
										"range[6]" : [ 1 ],
										"range[8]" : [ 1 ]
									}

								}

							}

						}
,
						"fileref" : 						{
							"name" : "hap",
							"filename" : "hap.maxsnap",
							"filepath" : "~/Documents/Max 8/Snapshots",
							"filepos" : -1,
							"snapshotfileid" : "5dcd3d7ad0f21b579ef6bb135e4a6a9c"
						}

					}
 ]
			}

		}

	}

}
